<svg id="visual" viewBox="0 0 900 900" width="900" height="900" xmlns="http://www.w3.org/2000/svg" xmlns:xlink="http://www.w3.org/1999/xlink" version="1.1"><path d="M0 633L21.5 619.5C43 606 86 579 128.8 570.3C171.7 561.7 214.3 571.3 257.2 583.7C300 596 343 611 385.8 617.3C428.7 623.7 471.3 621.3 514.2 628.2C557 635 600 651 642.8 647.7C685.7 644.3 728.3 621.7 771.2 614.8C814 608 857 617 878.5 621.5L900 626L900 901L878.5 901C857 901 814 901 771.2 901C728.3 901 685.7 901 642.8 901C600 901 557 901 514.2 901C471.3 901 428.7 901 385.8 901C343 901 300 901 257.2 901C214.3 901 171.7 901 128.8 901C86 901 43 901 21.5 901L0 901Z" fill="#673ab7"></path><path d="M0 700L21.5 685.5C43 671 86 642 128.8 633.3C171.7 624.7 214.3 636.3 257.2 644.7C300 653 343 658 385.8 662C428.7 666 471.3 669 514.2 657C557 645 600 618 642.8 614.8C685.7 611.7 728.3 632.3 771.2 644.5C814 656.7 857 660.3 878.5 662.2L900 664L900 901L878.5 901C857 901 814 901 771.2 901C728.3 901 685.7 901 642.8 901C600 901 557 901 514.2 901C471.3 901 428.7 901 385.8 901C343 901 300 901 257.2 901C214.3 901 171.7 901 128.8 901C86 901 43 901 21.5 901L0 901Z" fill="#cb1f99"></path><path d="M0 675L21.5 689.3C43 703.7 86 732.3 128.8 740C171.7 747.7 214.3 734.3 257.2 735C300 735.7 343 750.3 385.8 747.5C428.7 744.7 471.3 724.3 514.2 706.8C557 689.3 600 674.7 642.8 685C685.7 695.3 728.3 730.7 771.2 746.8C814 763 857 760 878.5 758.5L900 757L900 901L878.5 901C857 901 814 901 771.2 901C728.3 901 685.7 901 642.8 901C600 901 557 901 514.2 901C471.3 901 428.7 901 385.8 901C343 901 300 901 257.2 901C214.3 901 171.7 901 128.8 901C86 901 43 901 21.5 901L0 901Z" fill="#ff3b6c"></path><path d="M0 775L21.5 777.7C43 780.3 86 785.7 128.8 787.5C171.7 789.3 214.3 787.7 257.2 782C300 776.3 343 766.7 385.8 771.3C428.7 776 471.3 795 514.2 793.3C557 791.7 600 769.3 642.8 759C685.7 748.7 728.3 750.3 771.2 748.8C814 747.3 857 742.7 878.5 740.3L900 738L900 901L878.5 901C857 901 814 901 771.2 901C728.3 901 685.7 901 642.8 901C600 901 557 901 514.2 901C471.3 901 428.7 901 385.8 901C343 901 300 901 257.2 901C214.3 901 171.7 901 128.8 901C86 901 43 901 21.5 901L0 901Z" fill="#ff7d3b"></path><path d="M0 802L21.5 799.8C43 797.7 86 793.3 128.8 791.2C171.7 789 214.3 789 257.2 800.7C300 812.3 343 835.7 385.8 843C428.7 850.3 471.3 841.7 514.2 833.5C557 825.3 600 817.7 642.8 813C685.7 808.3 728.3 806.7 771.2 807.5C814 808.3 857 811.7 878.5 813.3L900 815L900 901L878.5 901C857 901 814 901 771.2 901C728.3 901 685.7 901 642.8 901C600 901 557 901 514.2 901C471.3 901 428.7 901 385.8 901C343 901 300 901 257.2 901C214.3 901 171.7 901 128.8 901C86 901 43 901 21.5 901L0 901Z" fill="#ffc107"></path></svg>