<svg id="visual" viewBox="0 0 900 600" width="900" height="600" xmlns="http://www.w3.org/2000/svg" xmlns:xlink="http://www.w3.org/1999/xlink" version="1.1"><path d="M0 222L16.7 219.8C33.3 217.7 66.7 213.3 100 217.2C133.3 221 166.7 233 200 238.5C233.3 244 266.7 243 300 242C333.3 241 366.7 240 400 229.8C433.3 219.7 466.7 200.3 500 199.3C533.3 198.3 566.7 215.7 600 213.8C633.3 212 666.7 191 700 192.7C733.3 194.3 766.7 218.7 800 224.5C833.3 230.3 866.7 217.7 883.3 211.3L900 205L900 0L883.3 0C866.7 0 833.3 0 800 0C766.7 0 733.3 0 700 0C666.7 0 633.3 0 600 0C566.7 0 533.3 0 500 0C466.7 0 433.3 0 400 0C366.7 0 333.3 0 300 0C266.7 0 233.3 0 200 0C166.7 0 133.3 0 100 0C66.7 0 33.3 0 16.7 0L0 0Z" fill="#ffc107"></path><path d="M0 196L16.7 185C33.3 174 66.7 152 100 153.3C133.3 154.7 166.7 179.3 200 183.5C233.3 187.7 266.7 171.3 300 156.7C333.3 142 366.7 129 400 126.5C433.3 124 466.7 132 500 133.5C533.3 135 566.7 130 600 135.2C633.3 140.3 666.7 155.7 700 167.8C733.3 180 766.7 189 800 193C833.3 197 866.7 196 883.3 195.5L900 195L900 0L883.3 0C866.7 0 833.3 0 800 0C766.7 0 733.3 0 700 0C666.7 0 633.3 0 600 0C566.7 0 533.3 0 500 0C466.7 0 433.3 0 400 0C366.7 0 333.3 0 300 0C266.7 0 233.3 0 200 0C166.7 0 133.3 0 100 0C66.7 0 33.3 0 16.7 0L0 0Z" fill="#ff8b31"></path><path d="M0 153L16.7 155.7C33.3 158.3 66.7 163.7 100 161.7C133.3 159.7 166.7 150.3 200 140.3C233.3 130.3 266.7 119.7 300 124.7C333.3 129.7 366.7 150.3 400 150.7C433.3 151 466.7 131 500 119.3C533.3 107.7 566.7 104.3 600 105C633.3 105.7 666.7 110.3 700 121.8C733.3 133.3 766.7 151.7 800 153.8C833.3 156 866.7 142 883.3 135L900 128L900 0L883.3 0C866.7 0 833.3 0 800 0C766.7 0 733.3 0 700 0C666.7 0 633.3 0 600 0C566.7 0 533.3 0 500 0C466.7 0 433.3 0 400 0C366.7 0 333.3 0 300 0C266.7 0 233.3 0 200 0C166.7 0 133.3 0 100 0C66.7 0 33.3 0 16.7 0L0 0Z" fill="#ff5459"></path><path d="M0 69L16.7 74C33.3 79 66.7 89 100 88.8C133.3 88.7 166.7 78.3 200 79.7C233.3 81 266.7 94 300 99.7C333.3 105.3 366.7 103.7 400 106.3C433.3 109 466.7 116 500 120.3C533.3 124.7 566.7 126.3 600 123.2C633.3 120 666.7 112 700 105.7C733.3 99.3 766.7 94.7 800 94.3C833.3 94 866.7 98 883.3 100L900 102L900 0L883.3 0C866.7 0 833.3 0 800 0C766.7 0 733.3 0 700 0C666.7 0 633.3 0 600 0C566.7 0 533.3 0 500 0C466.7 0 433.3 0 400 0C366.7 0 333.3 0 300 0C266.7 0 233.3 0 200 0C166.7 0 133.3 0 100 0C66.7 0 33.3 0 16.7 0L0 0Z" fill="#ef277f"></path><path d="M0 60L16.7 58.8C33.3 57.7 66.7 55.3 100 55.5C133.3 55.7 166.7 58.3 200 61.7C233.3 65 266.7 69 300 68.2C333.3 67.3 366.7 61.7 400 57C433.3 52.3 466.7 48.7 500 55.3C533.3 62 566.7 79 600 82C633.3 85 666.7 74 700 71.5C733.3 69 766.7 75 800 76.7C833.3 78.3 866.7 75.7 883.3 74.3L900 73L900 0L883.3 0C866.7 0 833.3 0 800 0C766.7 0 733.3 0 700 0C666.7 0 633.3 0 600 0C566.7 0 533.3 0 500 0C466.7 0 433.3 0 400 0C366.7 0 333.3 0 300 0C266.7 0 233.3 0 200 0C166.7 0 133.3 0 100 0C66.7 0 33.3 0 16.7 0L0 0Z" fill="#bc24a1"></path><path d="M0 44L16.7 45C33.3 46 66.7 48 100 47.3C133.3 46.7 166.7 43.3 200 39.2C233.3 35 266.7 30 300 28.8C333.3 27.7 366.7 30.3 400 35.7C433.3 41 466.7 49 500 48.5C533.3 48 566.7 39 600 38.2C633.3 37.3 666.7 44.7 700 48C733.3 51.3 766.7 50.7 800 46.7C833.3 42.7 866.7 35.3 883.3 31.7L900 28L900 0L883.3 0C866.7 0 833.3 0 800 0C766.7 0 733.3 0 700 0C666.7 0 633.3 0 600 0C566.7 0 533.3 0 500 0C466.7 0 433.3 0 400 0C366.7 0 333.3 0 300 0C266.7 0 233.3 0 200 0C166.7 0 133.3 0 100 0C66.7 0 33.3 0 16.7 0L0 0Z" fill="#673ab7"></path></svg>